<svg xmlns="http://www.w3.org/2000/svg" width="173" height="100" viewBox="0 0 173 100">
  <g id="Group_37450" data-name="Group 37450" transform="translate(-1325 -766)">
    <g id="Group_37358" data-name="Group 37358" transform="translate(509 -268)">
      <g id="Rectangle_1751" data-name="Rectangle 1751" transform="translate(816 1034)" fill="#fcfcfc" stroke="#dbdbdb" stroke-width="1">
        <rect width="173" height="100" rx="10" stroke="none"/>
        <rect x="0.5" y="0.5" width="172" height="99" rx="9.5" fill="none"/>
      </g>
    </g>
    <g id="Group_37361" data-name="Group 37361" transform="translate(0 -2.539)">
      <text id="Nigeria_Local_Bank_W_Copy" data-name="Nigeria Local Bank W Copy" transform="translate(1389.953 826)" fill="#0d141e" font-size="21" font-family="Times-Bold, Times" font-weight="700"><tspan x="0" y="0">Nganluong </tspan></text>
      <g id="Group_37360" data-name="Group 37360" transform="translate(1336.223 794.539)">
        <path id="Path_87805" data-name="Path 87805" d="M41.408,0H44.25A16.365,16.365,0,0,1,52.7,3.358,26.4,26.4,0,0,1,56.469,7.23,23.036,23.036,0,0,0,49.1,6.757,19.762,19.762,0,0,0,36.45,14.132c-.624.851-1.452,1.733-1.358,2.87q0,6.644,0,13.291A17.444,17.444,0,0,1,27.264,19.72a15.949,15.949,0,0,1,2.744-13.31A16.184,16.184,0,0,1,41.408,0Z" transform="translate(-18.369 0)" fill="#fd5c1f"/>
        <path id="Path_87807" data-name="Path 87807" d="M55.759,59.67a16.672,16.672,0,0,1,7.75,9.813A16.021,16.021,0,0,1,37.315,85.643a37.731,37.731,0,0,1-2.87-3.106,24.78,24.78,0,0,0,6.672.548A18.284,18.284,0,0,0,55.044,74.35a3.5,3.5,0,0,0,.715-2C55.759,68.122,55.75,63.9,55.759,59.67Z" transform="translate(-23.594 -40.873)" fill="#fd5c1f"/>
        <path id="Path_87808" data-name="Path 87808" d="M69.021,27.377a16.02,16.02,0,0,1,17.985,24,22.939,22.939,0,0,1-4.747,5.021,24.265,24.265,0,0,0,.517-6.905,17.887,17.887,0,0,0-9.819-14.2,3.084,3.084,0,0,0-1.323-.208q-6.214.019-12.428,0A17.256,17.256,0,0,1,69.021,27.377Z" transform="translate(-40.554 -18.314)" fill="#050708"/>
        <path id="Path_87806" data-name="Path 87806" d="M1.794,40.713a19.057,19.057,0,0,1,5.437-6.2,24.472,24.472,0,0,0-.473,7.069A19.669,19.669,0,0,0,14.1,54.432c.838.608,1.682,1.44,2.791,1.418,4.4.013,8.8-.022,13.2.013A19.765,19.765,0,0,1,25.871,60.7,16.015,16.015,0,0,1,1.794,40.713Z" transform="translate(0 -23.638)" fill="#050708"/>
      </g>
    </g>
  </g>
</svg>
