<svg id="jcb" xmlns="http://www.w3.org/2000/svg" width="104" height="52" viewBox="0 0 104 52">
  <g id="boundingbox" fill="rgba(255,0,0,0.1)" stroke="red" stroke-width="1" stroke-dasharray="4 4" opacity="0">
    <rect width="104" height="52" stroke="none"/>
    <rect x="0.5" y="0.5" width="103" height="51" fill="none"/>
  </g>
  <g id="Group_18358" data-name="Group 18358" transform="translate(24.002 6)">
    <path id="Path_16620" data-name="Path 16620" d="M13,7.438H29v18H13Zm20,0H49v18H33Zm20,0H69v18H53Z" transform="translate(-13 4.564)" fill="#fff"/>
    <path id="Path_16621" data-name="Path 16621" d="M31.261,23.745h3.762a1.74,1.74,0,0,1,1.867,1.349,1.813,1.813,0,0,1,0,.821,1.73,1.73,0,0,1-1.8,1.347H31.258V23.745Zm5.178-3.978a1.744,1.744,0,0,1,0,.747c-.2.912-.925,1.248-1.867,1.248H31.261V18.516h3.376A1.633,1.633,0,0,1,36.439,19.766ZM44,2.938v34a6,6,0,0,1-6,6H28V29.342H38.37c2.253-.016,4.21-1.163,4.21-3.333a3.055,3.055,0,0,0-.029-.416c-.227-1.627-1.765-2.645-3.792-2.8v-.08c2.024-.312,3.037-1.6,3.037-3.058a2.773,2.773,0,0,0-1.435-2.485,6.687,6.687,0,0,0-3.536-.645H28V8.938a6,6,0,0,1,6-6Z" transform="translate(11.997 -2.935)" fill="#269732"/>
    <path id="Path_16622" data-name="Path 16622" d="M13,26.069V8.937a6,6,0,0,1,6-6H29v34a5.994,5.994,0,0,1-5.992,6H13V28.89c2.435.669,8.311,1.413,11.765.1a4.672,4.672,0,0,0,3.306-4.728V16.533H22.338v7.733a3.08,3.08,0,0,1-2.392,3.16c-1.976.509-4.874-.352-6.946-1.355Z" transform="translate(-13 -2.937)" fill="#034d9b"/>
    <path id="Path_16623" data-name="Path 16623" d="M20.5,18.333v-9.4a6,6,0,0,1,6-6h10v34a6,6,0,0,1-5.994,6h-10V27.543a10.57,10.57,0,0,0,5.92,2.083,26.321,26.321,0,0,0,8.669-.739V26.069a12.056,12.056,0,0,1-6.613,1.453,4.3,4.3,0,0,1-4.2-4.584,4.315,4.315,0,0,1,4.266-4.594,12.329,12.329,0,0,1,6.549,1.464V16.984a26.875,26.875,0,0,0-7.706-.8c-2.392.117-5.069.592-6.882,2.149Z" transform="translate(-0.501 -2.937)" fill="#ad1031"/>
  </g>
</svg>
