<svg id="lienvietpostbank" xmlns="http://www.w3.org/2000/svg" width="104" height="52" viewBox="0 0 104 52">
  <g id="boundingbox" fill="rgba(255,0,0,0.1)" stroke="red" stroke-width="1" stroke-dasharray="4 4" opacity="0">
    <rect width="104" height="52" stroke="none"/>
    <rect x="0.5" y="0.5" width="103" height="51" fill="none"/>
  </g>
  <g id="Group_10443" data-name="Group 10443" transform="translate(0 17.701)">
    <path id="Path_17133" data-name="Path 17133" d="M12.564,11.789h0v0h0Z" transform="translate(-6.035 -5.662)" fill="#f4821f"/>
    <path id="Path_17134" data-name="Path 17134" d="M15.728,6.152A6.15,6.15,0,0,0,12.546.775,6.262,6.262,0,0,0,9.528,0,6.214,6.214,0,0,0,3.319,6.152H0v.06A9.619,9.619,0,0,0,6.528,15.3a10.591,10.591,0,0,0,3,.495h.024a9.039,9.039,0,0,0,2.994-.495,9.561,9.561,0,0,0,6.561-9.084v-.06Zm-3.182,5.414a6.314,6.314,0,0,1-4.588.566,6.245,6.245,0,0,1-1.43-.566A6.159,6.159,0,0,1,3.319,6.179H6.528V6.126c0-.057.038-.084.11-.14a9.006,9.006,0,0,0,2.7-2.714.356.356,0,0,1,.194-.083.331.331,0,0,1,.215.083,9.455,9.455,0,0,0,2.75,2.774c.024.024.024.054.054.081v.054h3.185a6.221,6.221,0,0,1-3.185,5.387" transform="translate(0 0)" fill="#f4821f"/>
    <path id="Path_17135" data-name="Path 17135" d="M18.335,17.552h0Z" transform="translate(-8.807 -8.431)" fill="#f4821f"/>
    <path id="Path_17136" data-name="Path 17136" d="M24.145,1.49Z" transform="translate(-11.598 -0.716)" fill="#f4821f"/>
    <path id="Path_17137" data-name="Path 17137" d="M18.58,11.788v.054h-.03a.12.12,0,0,1-.024.086,9.627,9.627,0,0,0-2.75,2.741.268.268,0,0,1-.215.113.382.382,0,0,1-.194-.083,8.69,8.69,0,0,0-2.693-2.72c-.05-.051-.074-.1-.113-.137v-.054Z" transform="translate(-6.034 -5.663)" fill="#f4821f"/>
    <path id="Path_17138" data-name="Path 17138" d="M47.33,9.466H42.761V.049h2.192v7.99H47.33Z" transform="translate(-20.541 -0.024)" fill="#164781" fill-rule="evenodd"/>
    <rect id="Rectangle_5466" data-name="Rectangle 5466" width="2.086" height="7.568" transform="translate(27.278 1.874)" fill="#164781"/>
    <path id="Path_17139" data-name="Path 17139" d="M62.562,7.537H59.6V9.068c0,.484.146.726.436.726s.437-.243.437-.726V8.091h2.086V9.2a1.732,1.732,0,0,1-.713,1.518,3.1,3.1,0,0,1-1.809.449,2.98,2.98,0,0,1-1.757-.475,1.766,1.766,0,0,1-.765-1.532V5.556a1.957,1.957,0,0,1,.647-1.572,2.8,2.8,0,0,1,1.875-.555,3,3,0,0,1,1.756.449,1.914,1.914,0,0,1,.766,1.677ZM59.6,6.281h.872V5.252a.436.436,0,1,0-.872,0Z" transform="translate(-27.628 -1.647)" fill="#164781" fill-rule="evenodd"/>
    <path id="Path_17140" data-name="Path 17140" d="M70.23,3.521v.937a1.463,1.463,0,0,1,.548-.772,1.736,1.736,0,0,1,1-.258,1.268,1.268,0,0,1,1.056.451,2.02,2.02,0,0,1,.356,1.282v5.928H71.1V5.833a1.392,1.392,0,0,0-.053-.463.425.425,0,0,0-.726-.041,1.15,1.15,0,0,0-.093.5v5.255H68.144V3.521Z" transform="translate(-32.733 -1.647)" fill="#164781" fill-rule="evenodd"/>
    <path id="Path_17141" data-name="Path 17141" d="M79.671,9.466,78.218.049h2.351L81.1,7.312,82.075.049h2.046L82.55,9.466Z" transform="translate(-37.572 -0.024)" fill="#164781" fill-rule="evenodd"/>
    <rect id="Rectangle_5467" data-name="Rectangle 5467" width="2.086" height="7.568" transform="translate(46.837 1.874)" fill="#164781"/>
    <path id="Path_17142" data-name="Path 17142" d="M100.259,7.537H97.3V9.068q0,.726.435.726t.436-.726V8.091h2.086V9.2a1.733,1.733,0,0,1-.713,1.518,3.107,3.107,0,0,1-1.809.449,2.974,2.974,0,0,1-1.756-.475,1.765,1.765,0,0,1-.766-1.532V5.556a1.958,1.958,0,0,1,.647-1.572,2.806,2.806,0,0,1,1.875-.555,3,3,0,0,1,1.756.449,1.914,1.914,0,0,1,.766,1.677ZM97.3,6.281h.872V5.252a.436.436,0,1,0-.872,0Z" transform="translate(-45.736 -1.647)" fill="#164781" fill-rule="evenodd"/>
    <path id="Path_17143" data-name="Path 17143" d="M106.445,3.736h-.7V2.362h.7V1.015h2.087V2.362h.91V3.736h-.91V7.867a1.257,1.257,0,0,0,.079.544c.052.1.193.146.421.146h.409V9.93h-1.7a1.165,1.165,0,0,1-1.017-.391,2.052,2.052,0,0,1-.277-1.184Z" transform="translate(-50.795 -0.488)" fill="#164781" fill-rule="evenodd"/>
    <path id="Path_17144" data-name="Path 17144" d="M116.781,9.467h-2.192V.05h2.681a4.207,4.207,0,0,1,2.087.4,1.75,1.75,0,0,1,.778,1.625V3.787a1.772,1.772,0,0,1-.778,1.546,3.03,3.03,0,0,1-1.77.488h-.805Zm0-8.07V4.474h.343a.689.689,0,0,0,.7-.344,3.61,3.61,0,0,0,.118-1.188,5.756,5.756,0,0,0-.053-.963.689.689,0,0,0-.766-.581Z" transform="translate(-55.043 -0.024)" fill="#f4821f" fill-rule="evenodd"/>
    <path id="Path_17145" data-name="Path 17145" d="M131.552,5.556V9.161a1.757,1.757,0,0,1-.753,1.532,3.509,3.509,0,0,1-3.526,0,1.765,1.765,0,0,1-.765-1.532V5.556a1.956,1.956,0,0,1,.646-1.572,3.452,3.452,0,0,1,3.745-.006,1.941,1.941,0,0,1,.654,1.578m-2.959-.225V9.267a.676.676,0,0,0,.1.376.372.372,0,0,0,.337.153.377.377,0,0,0,.337-.145.673.673,0,0,0,.1-.383V5.331a.68.68,0,0,0-.1-.376.37.37,0,0,0-.337-.152.378.378,0,0,0-.337.146.67.67,0,0,0-.1.382" transform="translate(-60.769 -1.647)" fill="#f4821f" fill-rule="evenodd"/>
    <path id="Path_17146" data-name="Path 17146" d="M142.37,6.189h-2.085V5.37a.759.759,0,0,0-.1-.409.368.368,0,0,0-.337-.158.376.376,0,0,0-.336.145.738.738,0,0,0-.1.422q0,.5.752.937,1.256.726,1.412.858a2.175,2.175,0,0,1,.753,1.717q0,2.285-2.641,2.285a2.9,2.9,0,0,1-1.677-.424,1.645,1.645,0,0,1-.687-1.452V8.09h2.088V9.226a.759.759,0,0,0,.1.409.366.366,0,0,0,.336.159.379.379,0,0,0,.337-.145.751.751,0,0,0,.1-.424,1.418,1.418,0,0,0-.768-1.2q-.711-.407-1.426-.831a2.007,2.007,0,0,1-.766-1.664,1.914,1.914,0,0,1,.7-1.611,2.8,2.8,0,0,1,1.744-.488,3.343,3.343,0,0,1,1.908.474,1.6,1.6,0,0,1,.693,1.414Z" transform="translate(-65.965 -1.647)" fill="#f4821f" fill-rule="evenodd"/>
    <path id="Path_17147" data-name="Path 17147" d="M148.957,3.736h-.7V2.362h.7V1.015h2.085V2.362h.911V3.736h-.911V7.867a1.274,1.274,0,0,0,.079.544c.053.1.194.146.424.146h.409V9.93h-1.7a1.161,1.161,0,0,1-1.016-.391,2.052,2.052,0,0,1-.277-1.184Z" transform="translate(-71.216 -0.488)" fill="#f4821f" fill-rule="evenodd"/>
    <path id="Path_17148" data-name="Path 17148" d="M171.223,11.076v-.885a1.984,1.984,0,0,1-.527.686,1.543,1.543,0,0,1-.963.291,1.428,1.428,0,0,1-1.077-.4,1.576,1.576,0,0,1-.39-1.142V8.5q0-1.055,1.48-1.781t1.477-1.361a.749.749,0,0,0-.091-.416.384.384,0,0,0-.344-.138.371.371,0,0,0-.336.152.722.722,0,0,0-.1.4V6.19h-2.088v-.7a1.809,1.809,0,0,1,.793-1.6,3.507,3.507,0,0,1,3.459-.014,1.821,1.821,0,0,1,.793,1.61v5.588Zm-.869-2.761v.819a.369.369,0,0,0,.118.29.383.383,0,0,0,.263.105c.211,0,.346-.068.4-.2a2.281,2.281,0,0,0,.084-.758V7.259c-.2.141-.4.279-.593.409a.833.833,0,0,0-.276.647" transform="translate(-80.827 -1.647)" fill="#f4821f" fill-rule="evenodd"/>
    <path id="Path_17149" data-name="Path 17149" d="M181.049,3.521v.937a1.452,1.452,0,0,1,.548-.772,1.73,1.73,0,0,1,1-.258,1.268,1.268,0,0,1,1.057.451,2.023,2.023,0,0,1,.356,1.282v5.928H181.92V5.833a1.424,1.424,0,0,0-.052-.463.426.426,0,0,0-.726-.041,1.152,1.152,0,0,0-.091.5v5.255h-2.088V3.521Z" transform="translate(-85.965 -1.647)" fill="#f4821f" fill-rule="evenodd"/>
    <path id="Path_17150" data-name="Path 17150" d="M191.744,9.466h-2.086V.049h2.086v5.3l1.1-3.446h2.018l-1.2,3.387,1.308,4.181H192.84L191.771,5.5Z" transform="translate(-91.103 -0.024)" fill="#f4821f" fill-rule="evenodd"/>
    <path id="Path_17151" data-name="Path 17151" d="M160.586,4.563V4.474c1.275-.086,1.54-1.055,1.54-2.071C162.126.38,160.982.16,159.4.115h-2.732V9.5H159.4c1.892-.045,2.729-.31,2.729-2.687,0-1.189-.131-2.246-1.54-2.246M159.4,8.13a1.247,1.247,0,0,1-.575,0V5.269h.575c.441.086.572.351.572,1.319,0,.793,0,1.365-.572,1.541m0-4.228v0h-.575V1.48a1.322,1.322,0,0,1,.575,0c.527.134.572.485.572,1.233,0,.924-.22,1.144-.572,1.189" transform="translate(-75.255 -0.055)" fill="#f4821f" fill-rule="evenodd"/>
    <path id="Path_17152" data-name="Path 17152" d="M42.7,26.977V23.355h.492L45.1,26.2V23.355h.46v3.622h-.493l-1.9-2.847v2.847Z" transform="translate(-20.512 -11.219)" fill="#164781" fill-rule="evenodd"/>
    <path id="Path_17153" data-name="Path 17153" d="M51.329,25.5v-.425l1.534,0v1.344a2.7,2.7,0,0,1-.729.424,2.175,2.175,0,0,1-.772.142,2.064,2.064,0,0,1-.97-.228,1.516,1.516,0,0,1-.659-.661,2.087,2.087,0,0,1-.222-.967,2.254,2.254,0,0,1,.221-.988,1.472,1.472,0,0,1,.637-.68,1.981,1.981,0,0,1,.956-.223,1.887,1.887,0,0,1,.711.128,1.165,1.165,0,0,1,.5.355,1.566,1.566,0,0,1,.275.592l-.432.119a1.336,1.336,0,0,0-.2-.435.828.828,0,0,0-.346-.254,1.282,1.282,0,0,0-.5-.095,1.467,1.467,0,0,0-.57.1,1.059,1.059,0,0,0-.386.263,1.261,1.261,0,0,0-.229.358,1.917,1.917,0,0,0-.138.731,1.774,1.774,0,0,0,.167.81,1.066,1.066,0,0,0,.486.485,1.506,1.506,0,0,0,.677.158,1.6,1.6,0,0,0,.607-.12,1.557,1.557,0,0,0,.451-.256V25.5H51.329Z" transform="translate(-23.783 -11.161)" fill="#164781" fill-rule="evenodd"/>
    <path id="Path_17154" data-name="Path 17154" d="M56.555,26.131l1.392-3.622h.516l1.482,3.622H59.4l-.424-1.1H57.462l-.4,1.1ZM58.2,21.866l-.28.419h-.51l.535-.692h.474l.557.692h-.5Zm-.6,2.778h1.228l-.378-1c-.115-.3-.2-.554-.257-.75a4.6,4.6,0,0,1-.2.692Z" transform="translate(-27.167 -10.373)" fill="#164781" fill-rule="evenodd"/>
    <path id="Path_17155" data-name="Path 17155" d="M63.808,26.977V23.355H64.3L66.2,26.2V23.355h.46v3.622h-.492l-1.9-2.847v2.847Z" transform="translate(-30.65 -11.219)" fill="#164781" fill-rule="evenodd"/>
    <path id="Path_17156" data-name="Path 17156" d="M73.586,26.977V23.355h.48v1.487h1.882V23.355h.48v3.622h-.48V25.269H74.066v1.708Z" transform="translate(-35.347 -11.219)" fill="#164781" fill-rule="evenodd"/>
    <path id="Path_17157" data-name="Path 17157" d="M79.826,26.131l1.391-3.622h.517l1.483,3.622h-.546l-.422-1.1H80.733l-.4,1.1Zm1.046-1.487H82.1l-.378-1q-.173-.456-.257-.75a4.649,4.649,0,0,1-.195.692Zm1-2.358h-.358l-.571-.692h.6Z" transform="translate(-38.345 -10.373)" fill="#164781" fill-rule="evenodd"/>
    <path id="Path_17158" data-name="Path 17158" d="M87.079,26.977V23.355h.492l1.9,2.844V23.355h.46v3.622h-.492l-1.9-2.847v2.847Z" transform="translate(-41.829 -11.219)" fill="#164781" fill-rule="evenodd"/>
    <path id="Path_17159" data-name="Path 17159" d="M95.707,25.5v-.425l1.535,0v1.344a2.7,2.7,0,0,1-.729.424,2.17,2.17,0,0,1-.772.142,2.065,2.065,0,0,1-.97-.228,1.517,1.517,0,0,1-.658-.661,2.081,2.081,0,0,1-.222-.967,2.24,2.24,0,0,1,.221-.988,1.466,1.466,0,0,1,.637-.68,1.982,1.982,0,0,1,.956-.223,1.884,1.884,0,0,1,.71.128,1.168,1.168,0,0,1,.5.355,1.557,1.557,0,0,1,.274.592l-.432.119a1.347,1.347,0,0,0-.2-.435.83.83,0,0,0-.346-.254,1.28,1.28,0,0,0-.5-.095,1.465,1.465,0,0,0-.568.1,1.063,1.063,0,0,0-.387.263,1.234,1.234,0,0,0-.228.358,1.888,1.888,0,0,0-.139.731,1.767,1.767,0,0,0,.167.81,1.062,1.062,0,0,0,.485.485,1.509,1.509,0,0,0,.677.158,1.613,1.613,0,0,0,.609-.12,1.549,1.549,0,0,0,.449-.256V25.5H95.707Z" transform="translate(-45.101 -11.161)" fill="#164781" fill-rule="evenodd"/>
    <path id="Path_17160" data-name="Path 17160" d="M104.367,26.977V23.355h1.359a1.677,1.677,0,0,1,.666.109.849.849,0,0,1,.393.339.884.884,0,0,1,.142.478.822.822,0,0,1-.126.438.906.906,0,0,1-.38.33.953.953,0,0,1,.505.329.886.886,0,0,1,.177.548,1.046,1.046,0,0,1-.109.473.9.9,0,0,1-.264.337,1.1,1.1,0,0,1-.4.18,2.417,2.417,0,0,1-.585.06Zm.48-2.1h.784a1.706,1.706,0,0,0,.457-.042.509.509,0,0,0,.275-.18.515.515,0,0,0,.092-.316.583.583,0,0,0-.086-.319.449.449,0,0,0-.248-.188,2.054,2.054,0,0,0-.55-.051h-.724Zm0,1.673h.9a2.273,2.273,0,0,0,.326-.016.8.8,0,0,0,.277-.1.523.523,0,0,0,.183-.2.638.638,0,0,0,.071-.306.6.6,0,0,0-.1-.351.546.546,0,0,0-.287-.21,1.767,1.767,0,0,0-.531-.061h-.837Z" transform="translate(-50.133 -11.219)" fill="#164781" fill-rule="evenodd"/>
    <path id="Path_17161" data-name="Path 17161" d="M114.159,23.87v-.515h.477v.407a1.164,1.164,0,0,1-.089.54.884.884,0,0,1-.78.453v.692a2.415,2.415,0,0,1-.125.868,1.07,1.07,0,0,1-.444.521,1.583,1.583,0,0,1-.849.2,1.242,1.242,0,0,1-1.295-.685,2.4,2.4,0,0,1-.138-.906V23.355h.479v2.09a2.044,2.044,0,0,0,.089.7.647.647,0,0,0,.3.342,1.051,1.051,0,0,0,.525.122.977.977,0,0,0,.754-.239,1.419,1.419,0,0,0,.225-.922v-2.09h.48v1.218a.709.709,0,0,0,.558-.307.8.8,0,0,0,.067-.4Z" transform="translate(-53.279 -11.219)" fill="#164781" fill-rule="evenodd"/>
    <path id="Path_17162" data-name="Path 17162" d="M121.6,23.354h.48v2.093a2.456,2.456,0,0,1-.124.867,1.054,1.054,0,0,1-.446.523,1.577,1.577,0,0,1-.845.2,1.745,1.745,0,0,1-.833-.176,1,1,0,0,1-.462-.508,2.413,2.413,0,0,1-.137-.908V23.354h.479v2.091a2.026,2.026,0,0,0,.088.7.668.668,0,0,0,.3.345,1.048,1.048,0,0,0,.523.121,1,1,0,0,0,.753-.239,1.39,1.39,0,0,0,.225-.922V23.354Z" transform="translate(-57.276 -11.218)" fill="#164781" fill-rule="evenodd"/>
    <path id="Path_17163" data-name="Path 17163" d="M128.593,26.977V25.329h-.4V25h.4V23.355h1.25a3.005,3.005,0,0,1,.642.051,1.22,1.22,0,0,1,.532.259,1.474,1.474,0,0,1,.43.619,2.444,2.444,0,0,1,.141.861,2.351,2.351,0,0,1-.176.954,1.412,1.412,0,0,1-.419.579,1.571,1.571,0,0,1-.564.257,2.487,2.487,0,0,1-.528.042Zm.479-.428h.773a1.92,1.92,0,0,0,.564-.065.819.819,0,0,0,.321-.186A1.135,1.135,0,0,0,131,25.84a2.2,2.2,0,0,0,.1-.7,2,2,0,0,0-.1-.679,1.135,1.135,0,0,0-.249-.408.836.836,0,0,0-.34-.212,2.063,2.063,0,0,0-.576-.06h-.761V25h1v.326h-1Z" transform="translate(-61.579 -11.219)" fill="#164781" fill-rule="evenodd"/>
    <rect id="Rectangle_5468" data-name="Rectangle 5468" width="0.48" height="3.622" transform="translate(70.75 12.135)" fill="#164781"/>
    <path id="Path_17164" data-name="Path 17164" d="M138.719,26.132V22.509h2.62v.427H139.2v1.109h2v.426h-2V25.7h2.225v.428Zm1.1.3h.507v.507h-.507Zm.246-4.562-.28.42h-.51l.535-.692h.473l.557.692h-.505Z" transform="translate(-66.634 -10.373)" fill="#164781" fill-rule="evenodd"/>
    <path id="Path_17165" data-name="Path 17165" d="M145.186,26.977V23.355h.492l1.9,2.844V23.355h.46v3.622h-.493l-1.9-2.847v2.847Z" transform="translate(-69.74 -11.219)" fill="#164781" fill-rule="evenodd"/>
    <path id="Path_17166" data-name="Path 17166" d="M154.9,26.977V23.355h.479v3.194h1.785v.428Z" transform="translate(-74.406 -11.219)" fill="#164781" fill-rule="evenodd"/>
    <rect id="Rectangle_5469" data-name="Rectangle 5469" width="0.48" height="3.622" transform="translate(83.409 12.135)" fill="#164781"/>
    <path id="Path_17167" data-name="Path 17167" d="M163.08,26.977V23.355H165.7v.427h-2.14v1.11h2.005v.425h-2.005v1.233h2.224v.428Z" transform="translate(-78.336 -11.219)" fill="#164781" fill-rule="evenodd"/>
    <path id="Path_17168" data-name="Path 17168" d="M169.547,26.977V23.355h.492l1.9,2.844V23.355h.46v3.622h-.493l-1.9-2.847v2.847Z" transform="translate(-81.442 -11.219)" fill="#164781" fill-rule="evenodd"/>
    <path id="Path_17169" data-name="Path 17169" d="M179.993,26.977l-1.4-3.622h.519l.941,2.631c.076.211.139.409.191.593.056-.2.122-.4.2-.593l.979-2.631h.489l-1.419,3.622Z" transform="translate(-85.786 -11.219)" fill="#164781" fill-rule="evenodd"/>
    <rect id="Rectangle_5470" data-name="Rectangle 5470" width="0.479" height="3.622" transform="translate(96.629 12.135)" fill="#164781"/>
    <path id="Path_17170" data-name="Path 17170" d="M188.517,26.132V22.509h2.621v.427H189v1.109h2v.426h-2V25.7h2.223v.428Zm1.1.3h.506v.507h-.506Zm.238-4.562-.28.42h-.51l.535-.692h.474l.557.692h-.505Z" transform="translate(-90.555 -10.373)" fill="#164781" fill-rule="evenodd"/>
    <path id="Path_17171" data-name="Path 17171" d="M195.668,26.977v-3.2h-1.193v-.427h2.871v.427h-1.2v3.2Z" transform="translate(-93.417 -11.219)" fill="#164781" fill-rule="evenodd"/>
    <path id="Path_17172" data-name="Path 17172" d="M164.964,21.866l-.28.42h-.51l.535-.692h.473l.557.692h-.5Z" transform="translate(-78.862 -10.373)" fill="#164781" fill-rule="evenodd"/>
  </g>
</svg>
