<svg id="unionpay" xmlns="http://www.w3.org/2000/svg" xmlns:xlink="http://www.w3.org/1999/xlink" width="104" height="52" viewBox="0 0 104 52">
  <defs>
    <clipPath id="clip-path">
      <rect id="Rectangle_5125" data-name="Rectangle 5125" width="57.552" height="36" fill="none"/>
    </clipPath>
  </defs>
  <g id="boundingbox" fill="rgba(255,0,0,0.1)" stroke="red" stroke-width="1" stroke-dasharray="4 4" opacity="0">
    <rect width="104" height="52" stroke="none"/>
    <rect x="0.5" y="0.5" width="103" height="51" fill="none"/>
  </g>
  <g id="Group_18359" data-name="Group 18359" transform="translate(23.224 8)">
    <g id="Group_10320" data-name="Group 10320" clip-path="url(#clip-path)">
      <path id="Path_8625" data-name="Path 8625" d="M11.271,0H25.636A2.8,2.8,0,0,1,28.42,3.646L21.732,32.359A4.882,4.882,0,0,1,17.246,36H2.883A2.8,2.8,0,0,1,.1,32.359L6.789,3.646A4.869,4.869,0,0,1,11.271,0" transform="translate(0 0)" fill="#e21836"/>
      <path id="Path_8626" data-name="Path 8626" d="M38.669,0H55.188c2,0,1.1,1.634.629,3.646L49.131,32.359c-.469,2-.323,3.641-2.332,3.641H30.28A2.792,2.792,0,0,1,27.5,32.359L34.186,3.646A4.878,4.878,0,0,1,38.669,0" transform="translate(-14.229 0)" fill="#00447c"/>
      <path id="Path_8627" data-name="Path 8627" d="M71.673,0H86.037a2.8,2.8,0,0,1,2.784,3.646L82.134,32.359A4.884,4.884,0,0,1,77.646,36H63.287A2.8,2.8,0,0,1,60.5,32.359L67.191,3.646A4.867,4.867,0,0,1,71.673,0" transform="translate(-31.369 0)" fill="#007b84"/>
      <path id="Path_8628" data-name="Path 8628" d="M22.008,19.088a15.389,15.389,0,0,1-2.053-.033c-.053.255-1.05,4.853-1.053,4.857a3.368,3.368,0,0,1-.9,2.022,1.607,1.607,0,0,1-1.06.369.981.981,0,0,1-1.1-.943l-.012-.212s.2-1.246.2-1.253,1.046-4.191,1.233-4.744a.341.341,0,0,0,.015-.063,15.29,15.29,0,0,1-2.422-.033c-.013.045-.064.305-.064.305l-1.068,4.723-.092.4-.177,1.31a1.929,1.929,0,0,0,.228.974c.486.85,1.875.978,2.66.978a5.159,5.159,0,0,0,2.6-.608,3.853,3.853,0,0,0,1.665-2.6l.121-.469s1.078-4.352,1.26-4.918a.184.184,0,0,1,.019-.063M25.675,22.6a2.846,2.846,0,0,0-1.161.272c-.155.079-.3.171-.456.262l.139-.5-.076-.085c-.9.183-1.106.208-1.942.325l-.07.047a24.648,24.648,0,0,1-.543,2.99c-.137.583-.279,1.17-.421,1.752l.038.074c.857-.045,1.116-.045,1.86-.033l.061-.066c.095-.484.107-.6.316-1.578.1-.465.3-1.487.4-1.851a1.39,1.39,0,0,1,.545-.171c.417,0,.366.364.35.509-.018.243-.17,1.038-.325,1.721l-.1.44c-.073.325-.152.641-.225.964l.032.064c.844-.045,1.1-.045,1.821-.033L26,27.634c.13-.756.168-.958.4-2.06l.116-.506c.225-.99.339-1.493.168-1.9a.983.983,0,0,0-1.012-.569m4.1,1.037c-.449.086-.735.143-1.02.18s-.557.087-.99.147l-.034.031-.032.025c-.045.323-.076.6-.137.93s-.129.725-.256,1.279a5.079,5.079,0,0,1-.205.721,6.18,6.18,0,0,0-.225.711l.026.039.022.035c.405-.019.67-.033.943-.035s.554,0,.99,0l.038-.031.041-.035c.063-.376.073-.477.111-.66s.1-.469.265-1.2c.076-.342.162-.682.241-1.031s.169-.689.25-1.031l-.013-.041Zm.009-1.4a1.643,1.643,0,0,0-1.6.168c-.48.326-.535.788-.128,1.032a1.639,1.639,0,0,0,1.6-.171c.479-.333.539-.791.137-1.029m2.464,5.571a3.063,3.063,0,0,0,2.306-.9,4.078,4.078,0,0,0,.791-1.7,2.157,2.157,0,0,0-.191-1.945,2.123,2.123,0,0,0-1.73-.635,3.176,3.176,0,0,0-2.173.752,3.558,3.558,0,0,0-.964,1.877c-.156.68-.335,1.9.79,2.359a3.292,3.292,0,0,0,1.171.19m-.064-2.5c.19-.841.415-1.547.987-1.547.449,0,.482.525.282,1.369a3.772,3.772,0,0,1-.422,1.181.7.7,0,0,1-.54.351c-.06,0-.419,0-.424-.532a3.621,3.621,0,0,1,.116-.822M37.4,27.7l.064-.065c.091-.485.106-.6.309-1.579.1-.465.311-1.487.409-1.851a1.373,1.373,0,0,1,.547-.171c.414,0,.364.364.348.509a16.52,16.52,0,0,1-.326,1.72l-.1.44c-.075.326-.157.642-.23.964l.032.064c.846-.045,1.094-.045,1.819-.033l.087-.065c.127-.757.161-.959.4-2.06l.113-.507c.227-.99.342-1.492.174-1.9a.994.994,0,0,0-1.015-.569,2.829,2.829,0,0,0-1.161.272c-.151.079-.3.171-.453.262l.13-.5-.069-.085c-.9.183-1.111.208-1.945.325l-.064.047a25.712,25.712,0,0,1-.543,2.99c-.137.583-.279,1.171-.421,1.752l.038.074c.858-.045,1.114-.045,1.856-.033m6.22.033c.053-.26.369-1.8.372-1.8s.269-1.13.286-1.171a.67.67,0,0,1,.169-.164h.125a5.789,5.789,0,0,0,3.545-.766,3.779,3.779,0,0,0,1.408-2.243,3.381,3.381,0,0,0,.1-.781,1.638,1.638,0,0,0-.282-1c-.531-.743-1.588-.756-2.808-.762l-.6.006c-1.562.019-2.189.013-2.446-.018-.022.114-.062.316-.062.316s-.56,2.593-.56,2.6l-1.4,5.773c1.364-.016,1.923-.016,2.158.01m1.037-4.606.592-2.578.019-.133.008-.1.238.025,1.256.108a1.023,1.023,0,0,1,.544,1.3,1.891,1.891,0,0,1-.981,1.294,3.1,3.1,0,0,1-1.379.214h-.323Zm3.7,2.231c-.157.67-.338,1.894.782,2.33a2.189,2.189,0,0,0,1,.181,1.652,1.652,0,0,0,.957-.439q-.04.153-.08.306l.05.065c.806-.034,1.056-.034,1.928-.027l.079-.06c.127-.749.248-1.477.579-2.91.162-.687.323-1.367.488-2.051l-.025-.075c-.9.167-1.142.2-2.009.325l-.066.053c-.009.07-.018.137-.026.2a1.236,1.236,0,0,0-.632-.52,2.412,2.412,0,0,0-2.069.752,3.514,3.514,0,0,0-.959,1.864m1.893.041c.193-.826.414-1.525.989-1.525.363,0,.554.335.515.907-.031.142-.064.293-.1.462-.057.246-.12.489-.18.733a1.76,1.76,0,0,1-.212.428.991.991,0,0,1-.7.339c-.058,0-.412,0-.424-.522a3.589,3.589,0,0,1,.118-.822m9.884-2.727-.07-.08c-.892.181-1.053.21-1.872.32l-.061.06c0,.01,0,.025-.009.038l0-.013c-.61,1.407-.593,1.1-1.089,2.212,0-.05,0-.082-.005-.136l-.124-2.4-.078-.08c-.934.181-.957.21-1.819.32l-.067.06a.658.658,0,0,0-.015.095l.006.012a12.108,12.108,0,0,1,.19,1.3c.05.427.117.856.168,1.278.085.705.133,1.053.237,2.129-.583.961-.721,1.325-1.281,2.169l0,.009-.4.624a.3.3,0,0,1-.144.13.594.594,0,0,1-.259.037h-.219l-.325,1.082,1.116.019a1.375,1.375,0,0,0,1.288-.721l.7-1.2h-.012l.074-.085c.473-1.016,4.062-7.175,4.062-7.175M48.365,36.88h-.473l1.752-5.8h.581l.185-.6.018.664c-.022.41.3.774,1.149.714h.981l.337-1.116h-.369c-.212,0-.311-.053-.3-.168l-.018-.675H50.393v0a25.467,25.467,0,0,0-2.7.151,3.17,3.17,0,0,0-.883.436l.178-.6h-1.7l-.354,1.186-1.776,5.883H42.82l-.338,1.108h3.384l-.113.369H47.42l.111-.369H48Zm-1.388-4.617a7.534,7.534,0,0,0-.778.3l.45-1.481H48l-.325,1.079a4.374,4.374,0,0,0-.7.1M47,34.379s-.424.053-.7.116a6.918,6.918,0,0,0-.79.346l.465-1.541h1.356Zm-.757,2.515H44.892l.392-1.3h1.35ZM49.507,33.3h1.952l-.281.908H49.2l-.3.993h1.73l-1.31,1.845a.539.539,0,0,1-.265.222.778.778,0,0,1-.352.1h-.48l-.33,1.088h1.256a1.527,1.527,0,0,0,1.323-.687l.9-1.23.193,1.249a.587.587,0,0,0,.323.424,1.164,1.164,0,0,0,.439.187c.2.008.339.015.434.015h.617l.371-1.217h-.243a1.02,1.02,0,0,1-.422-.067.664.664,0,0,1-.063-.26l-.2-1.252h-.8l.351-.418H54.35l.3-.993H52.826l.285-.908h1.822l.338-1.12H49.839ZM33.023,37.147l.456-1.516h1.872l.342-1.127H33.819l.286-.933h1.831l.339-1.092H31.694l-.333,1.092H32.4l-.277.933H31.081l-.346,1.146h1.041l-.607,2a.477.477,0,0,0,.115.49.5.5,0,0,0,.335.245,2.02,2.02,0,0,0,.48.065h2.111l.376-1.248-.935.128c-.181,0-.681-.022-.626-.188m.215-7.254-.474.858a1,1,0,0,1-.275.357.913.913,0,0,1-.424.064h-.248l-.331,1.1h.822a1.861,1.861,0,0,0,.843-.217c.156-.084.2-.036.317-.152l.278-.241h2.567l.34-1.142H34.775l.328-.623Zm3.79,7.276c-.044-.063-.012-.174.055-.4l.7-2.323h2.5c.364-.005.626-.01.8-.022a1.626,1.626,0,0,0,.6-.2,1.124,1.124,0,0,0,.436-.4,3.43,3.43,0,0,0,.431-.976l.882-2.939-2.59.015a8.144,8.144,0,0,0-1.148.248,4.677,4.677,0,0,0-.861.549l.234-.806h-1.6l-2.24,7.429a4.586,4.586,0,0,0-.145.623c0,.136.171.27.285.371a1.021,1.021,0,0,0,.522.1c.2.015.485.025.877.025h1.23l.378-1.274-1.1.1a.29.29,0,0,1-.238-.116m1.209-4.3h2.622l-.167.523a1.865,1.865,0,0,0-.346.005h-2.27Zm.525-1.752h2.644l-.19.629s-1.246-.012-1.446.025a2.948,2.948,0,0,0-1.391.621Zm1.989,4.024a.281.281,0,0,1-.1.161.521.521,0,0,1-.268.047h-.373l.022-.636H38.473l-.063,3.11c0,.224.019.354.184.458a3.119,3.119,0,0,0,1.351.147h.974l.351-1.164-.848.046-.282.017a.334.334,0,0,1-.116-.073c-.036-.036-.1-.013-.086-.238l.007-.8.889-.037a1.151,1.151,0,0,0,.86-.305.952.952,0,0,0,.285-.528l.149-.706H40.907Z" transform="translate(-6.986 -9.887)" fill="#fefefe"/>
    </g>
  </g>
</svg>
