<svg id="visa" xmlns="http://www.w3.org/2000/svg" width="104" height="52" viewBox="0 0 104 52">
  <g id="boundingbox" fill="rgba(255,0,0,0.1)" stroke="red" stroke-width="1" stroke-dasharray="4 4" opacity="0">
    <rect width="104" height="52" stroke="none"/>
    <rect x="0.5" y="0.5" width="103" height="51" fill="none"/>
  </g>
  <path id="Path_45811" data-name="Path 45811" d="M20.081.389,14.353,14.872,12.035,2.558A2.564,2.564,0,0,0,9.5.389H.13L0,1.006A23.017,23.017,0,0,1,5.43,2.817,2.327,2.327,0,0,1,6.738,4.685l4.389,16.982h5.818L25.863.389Zm8.144,0L23.672,21.667h5.505L33.73.389Zm31.56,5.749,1.667,7.99H56.887ZM58.979.389a2.505,2.505,0,0,0-2.344,1.56L48.377,21.667h5.778L55.3,18.489h7.063l.664,3.178h5.091L63.678.389ZM35.228,7.034c-.036,3.065,2.733,4.772,4.819,5.791,2.145,1.043,2.863,1.712,2.856,2.644-.016,1.429-1.711,2.058-3.3,2.083a11.52,11.52,0,0,1-5.653-1.345l-1,4.663A16.67,16.67,0,0,0,39.079,22c5.783,0,9.566-2.855,9.583-7.28C48.687,9.1,40.9,8.794,40.951,6.285c.017-.762.743-1.574,2.335-1.781a10.38,10.38,0,0,1,5.426.951L49.68.944A14.786,14.786,0,0,0,44.529,0c-5.44,0-9.271,2.892-9.3,7.034" transform="translate(17.939 15)" fill="#1434cb"/>
</svg>
